<svg id="svg" version="1.1" width="400" height="124.65116279069767" viewBox="0 0 400 124.65116279069767" xmlns="http://www.w3.org/2000/svg" xmlns:xlink="http://www.w3.org/1999/xlink" ><g id="svgg"><path id="path0" d="M171.943 62.080 C 171.808 62.216,171.670 62.406,171.638 62.503 C 171.605 62.603,171.002 62.694,170.248 62.715 C 168.936 62.749,168.916 62.756,168.865 63.200 C 168.817 63.617,168.749 63.654,167.948 63.700 C 167.148 63.746,167.079 63.784,167.032 64.198 C 166.992 64.545,166.878 64.658,166.532 64.698 C 166.257 64.730,166.082 64.852,166.081 65.015 C 166.078 65.314,165.580 65.870,165.381 65.798 C 165.309 65.771,165.227 66.102,165.200 66.531 C 165.154 67.241,165.108 67.318,164.700 67.365 L 164.250 67.417 164.211 71.025 C 164.172 74.709,164.240 75.117,164.837 74.748 C 165.052 74.615,165.144 74.867,165.188 75.713 C 165.227 76.458,165.487 76.797,165.848 76.574 C 165.932 76.522,166.009 76.597,166.021 76.740 C 166.032 76.883,166.051 77.094,166.063 77.208 C 166.074 77.323,166.290 77.440,166.542 77.469 C 166.854 77.505,167.000 77.619,167.000 77.824 C 167.000 78.174,167.376 78.534,167.696 78.490 C 168.435 78.390,168.768 78.521,168.940 78.977 C 169.116 79.442,169.153 79.455,170.313 79.452 C 170.969 79.451,171.523 79.480,171.545 79.517 C 171.566 79.553,171.666 79.733,171.767 79.917 C 172.054 80.438,172.944 80.449,173.478 79.938 C 173.853 79.581,174.087 79.515,175.083 79.489 C 176.764 79.446,177.094 79.362,177.123 78.967 C 177.156 78.530,177.225 78.471,177.739 78.441 C 178.088 78.421,178.166 78.333,178.167 77.958 C 178.167 77.581,178.240 77.500,178.583 77.500 C 178.917 77.500,179.000 77.417,179.000 77.083 C 179.000 76.731,179.078 76.667,179.500 76.667 C 179.775 76.667,179.991 76.610,179.980 76.542 C 179.887 75.950,180.028 75.667,180.417 75.667 C 180.732 75.667,180.838 75.575,180.854 75.292 C 180.865 75.085,180.890 74.587,180.908 74.183 C 180.933 73.623,181.045 73.361,181.379 73.073 C 181.870 72.651,182.094 69.219,181.620 69.377 C 181.236 69.505,180.977 68.994,180.899 67.959 C 180.793 66.532,180.790 66.517,180.681 66.529 C 180.158 66.585,180.000 66.462,180.000 66.000 C 180.000 65.556,179.944 65.500,179.500 65.500 C 179.084 65.500,179.000 65.433,179.000 65.101 C 179.000 64.718,178.611 64.412,178.339 64.580 C 178.266 64.625,178.162 64.437,178.108 64.164 C 178.021 63.728,177.938 63.667,177.439 63.667 C 177.064 63.667,176.833 63.573,176.764 63.393 C 176.683 63.182,176.709 63.161,176.878 63.301 C 177.044 63.439,177.102 63.412,177.119 63.186 C 177.132 63.023,177.054 62.885,176.946 62.881 C 176.838 62.877,176.606 62.814,176.431 62.742 C 176.182 62.639,176.143 62.662,176.255 62.847 C 176.375 63.046,176.355 63.049,176.124 62.862 C 175.973 62.740,175.603 62.653,175.300 62.670 C 174.015 62.741,172.920 62.659,173.156 62.510 C 173.354 62.385,173.358 62.314,173.177 62.096 C 172.902 61.765,172.267 61.757,171.943 62.080 " stroke="none" fill="#3cc4d4" fill-rule="evenodd"></path><path id="path1" d="M8.154 37.708 C 8.147 37.731,8.115 37.888,8.083 38.057 C 7.988 38.560,7.953 38.565,4.496 38.550 C 2.666 38.542,1.205 38.594,1.250 38.667 C 1.295 38.739,1.215 38.843,1.074 38.897 C 0.932 38.952,0.854 38.935,0.901 38.859 C 0.947 38.784,0.880 38.722,0.752 38.722 C 0.624 38.722,0.523 38.766,0.529 38.819 C 0.573 39.227,0.461 39.500,0.250 39.500 C 0.034 39.500,0.000 40.130,0.000 44.167 L 0.000 48.833 10.500 48.833 L 21.000 48.833 21.020 66.875 C 21.031 76.798,21.026 85.016,21.010 85.137 C 20.920 85.801,21.133 85.824,27.342 85.825 C 33.576 85.825,33.828 85.797,33.836 85.113 C 33.837 85.005,33.855 76.842,33.877 66.972 C 33.899 57.103,33.959 48.985,34.012 48.933 C 34.064 48.881,38.878 48.835,44.710 48.831 L 55.314 48.824 55.328 44.173 L 55.342 39.522 54.796 39.469 C 54.330 39.424,54.258 39.359,54.305 39.026 C 54.355 38.665,54.316 38.643,53.805 38.744 C 53.396 38.825,53.316 38.808,53.500 38.681 C 53.677 38.558,53.140 38.525,51.667 38.568 C 49.075 38.644,47.665 38.530,47.771 38.254 C 47.883 37.963,47.387 37.610,47.048 37.740 C 46.799 37.836,46.793 37.875,47.005 38.025 C 47.204 38.166,47.193 38.180,46.945 38.099 C 46.777 38.045,46.604 38.000,46.560 38.000 C 46.516 38.000,46.526 37.927,46.581 37.837 C 46.647 37.731,40.049 37.674,27.750 37.674 C 17.058 37.674,8.857 37.737,8.908 37.819 C 8.957 37.898,8.826 38.075,8.618 38.212 C 8.272 38.439,8.238 38.435,8.238 38.166 C 8.238 37.977,8.325 37.904,8.480 37.964 C 8.635 38.024,8.678 37.987,8.601 37.862 C 8.496 37.693,8.191 37.588,8.154 37.708 M82.257 37.844 C 82.306 37.924,82.157 38.038,81.925 38.096 C 81.692 38.155,81.544 38.269,81.594 38.351 C 81.701 38.523,80.850 38.561,77.542 38.531 C 76.235 38.520,75.167 38.572,75.167 38.648 C 75.167 38.724,74.960 38.778,74.708 38.768 C 74.383 38.755,74.202 38.859,74.085 39.125 C 73.944 39.447,73.591 39.593,73.126 39.520 C 73.058 39.509,73.002 49.738,73.002 62.250 C 73.002 77.195,73.059 85.000,73.168 85.000 C 73.259 85.000,73.333 85.079,73.333 85.177 C 73.333 85.274,73.258 85.307,73.167 85.250 C 72.962 85.123,72.954 85.336,73.152 85.649 C 73.238 85.785,73.444 85.843,73.650 85.790 C 73.842 85.739,74.000 85.757,74.000 85.830 C 74.000 85.903,75.031 85.971,76.292 85.981 C 77.552 85.992,78.817 86.005,79.103 86.011 C 79.464 86.019,79.683 86.136,79.823 86.397 C 80.014 86.755,80.128 86.773,82.360 86.812 C 84.247 86.844,84.673 86.810,84.567 86.634 C 84.460 86.457,84.485 86.456,84.699 86.629 C 85.142 86.989,85.166 86.468,85.158 76.639 L 85.150 67.250 99.617 67.207 C 113.844 67.165,114.885 67.187,114.297 67.516 C 113.992 67.688,113.819 85.833,114.122 85.834 C 114.193 85.834,114.400 86.062,114.583 86.340 L 114.917 86.845 117.450 86.810 C 118.844 86.791,119.957 86.731,119.923 86.677 C 119.890 86.624,119.969 86.435,120.098 86.258 C 120.227 86.081,120.333 86.011,120.333 86.101 C 120.333 86.192,120.252 86.348,120.152 86.448 C 120.025 86.575,120.024 86.662,120.147 86.738 C 120.246 86.799,120.368 86.669,120.425 86.444 C 120.547 85.956,121.095 85.868,123.583 85.934 C 125.524 85.986,126.025 85.900,125.988 85.522 C 125.938 85.004,126.001 84.833,126.244 84.833 C 126.828 84.833,126.837 84.436,126.793 62.165 L 126.750 40.148 126.333 39.828 C 126.104 39.651,125.766 39.506,125.581 39.504 C 125.396 39.502,125.171 39.332,125.080 39.125 C 124.977 38.892,124.797 38.770,124.607 38.803 C 124.428 38.834,124.344 38.784,124.407 38.683 C 124.479 38.566,123.792 38.517,122.299 38.533 C 118.519 38.572,118.388 38.558,118.403 38.125 C 118.416 37.760,118.370 37.750,116.625 37.731 C 115.640 37.721,114.833 37.774,114.833 37.851 C 114.833 37.927,114.728 37.949,114.600 37.900 C 114.325 37.795,114.099 38.089,114.258 38.346 C 114.328 38.460,114.518 38.385,114.782 38.138 L 115.196 37.750 114.973 38.248 C 114.714 38.827,114.238 39.349,114.097 39.208 C 114.044 39.155,114.018 42.780,114.039 47.264 L 114.078 55.417 114.167 47.667 L 114.255 39.917 114.294 47.688 C 114.328 54.360,114.369 55.489,114.583 55.667 C 114.721 55.781,114.833 55.948,114.833 56.039 C 114.833 56.129,114.690 56.027,114.514 55.810 C 114.339 55.594,114.141 55.471,114.074 55.538 C 114.007 55.604,114.048 55.773,114.164 55.914 C 114.354 56.142,112.862 56.164,99.762 56.126 L 85.149 56.083 85.155 47.417 C 85.161 39.311,85.113 38.292,84.731 38.313 C 84.650 38.317,84.433 38.191,84.250 38.033 C 83.904 37.734,82.082 37.561,82.257 37.844 M84.407 37.922 C 84.774 38.200,85.000 38.236,85.000 38.018 C 85.000 37.858,84.595 37.663,84.278 37.672 C 84.171 37.675,84.229 37.787,84.407 37.922 M290.052 37.905 C 289.943 38.029,289.898 38.176,289.953 38.231 C 290.072 38.349,290.500 38.022,290.500 37.813 C 290.500 37.600,290.280 37.645,290.052 37.905 M290.833 37.947 C 290.833 38.098,290.783 38.172,290.722 38.111 C 290.661 38.049,290.471 38.125,290.301 38.279 C 290.036 38.519,289.579 38.558,287.079 38.552 C 285.477 38.548,284.167 38.599,284.167 38.666 C 284.167 38.733,283.981 38.767,283.755 38.742 C 283.529 38.717,283.350 38.747,283.358 38.807 C 283.428 39.327,283.298 39.500,282.836 39.500 L 282.338 39.500 282.334 62.686 C 282.331 85.818,282.332 85.873,282.666 85.785 C 282.849 85.737,283.000 85.757,283.000 85.829 C 283.000 85.901,284.209 85.953,285.687 85.944 L 288.375 85.929 288.739 86.385 C 288.939 86.636,289.154 86.791,289.217 86.728 C 289.279 86.665,289.237 86.495,289.124 86.349 C 288.941 86.114,288.950 86.110,289.206 86.311 C 289.366 86.436,289.456 86.602,289.408 86.681 C 289.358 86.761,297.466 86.826,307.697 86.827 L 326.075 86.829 326.463 86.373 C 326.804 85.972,326.828 85.964,326.662 86.306 C 326.410 86.826,326.553 86.941,326.823 86.436 C 327.085 85.946,327.596 85.869,330.125 85.936 C 331.201 85.965,332.000 85.920,332.000 85.832 C 332.000 85.747,332.112 85.720,332.250 85.773 C 332.469 85.857,332.500 85.251,332.500 80.924 C 332.500 76.047,332.443 75.462,331.935 75.132 C 331.835 75.067,323.582 75.009,313.595 75.004 C 303.609 74.998,295.396 74.951,295.344 74.900 C 295.218 74.774,295.162 68.210,295.281 67.617 L 295.375 67.151 305.672 67.201 C 311.335 67.228,315.934 67.194,315.891 67.125 C 315.848 67.056,315.887 67.000,315.976 67.000 C 316.066 67.000,316.168 67.088,316.204 67.196 C 316.520 68.142,316.638 66.702,316.658 61.686 L 316.680 56.206 316.132 56.210 C 312.218 56.237,294.959 56.122,295.083 56.070 C 295.189 56.026,295.237 54.681,295.216 52.417 L 295.182 48.833 313.132 48.810 C 333.285 48.784,332.011 48.797,332.292 48.615 C 332.450 48.513,332.500 47.406,332.500 44.026 L 332.500 39.571 331.962 39.530 C 331.666 39.507,331.363 39.380,331.288 39.246 C 330.983 38.701,330.422 38.595,327.717 38.566 C 325.085 38.539,323.810 38.246,324.279 37.777 C 324.334 37.722,316.831 37.675,307.606 37.674 C 292.119 37.672,290.833 37.692,290.833 37.947 M361.556 37.917 C 361.556 38.046,361.637 38.107,361.736 38.053 C 361.835 37.998,361.789 38.088,361.633 38.254 C 361.390 38.512,361.057 38.555,359.258 38.557 C 358.108 38.559,357.167 38.626,357.167 38.706 C 357.167 38.787,357.107 38.816,357.035 38.771 C 356.962 38.726,356.891 38.843,356.877 39.030 C 356.842 39.490,356.917 39.464,355.417 39.527 C 354.108 39.582,354.082 39.592,354.031 40.033 C 353.983 40.450,353.916 40.487,353.115 40.533 C 352.363 40.577,352.243 40.632,352.197 40.958 C 352.151 41.283,352.044 41.333,351.405 41.333 C 350.996 41.333,350.667 41.412,350.667 41.510 C 350.667 41.607,350.573 41.632,350.458 41.566 C 350.344 41.501,350.294 41.497,350.349 41.558 C 350.610 41.854,350.044 43.250,349.685 43.197 C 349.487 43.168,349.336 43.206,349.349 43.281 C 349.441 43.814,349.293 44.141,348.917 44.235 C 348.688 44.293,348.500 44.413,348.500 44.503 C 348.500 44.715,348.607 44.709,349.053 44.476 C 349.413 44.287,349.413 44.288,349.103 44.638 C 348.930 44.833,348.732 44.957,348.662 44.914 C 348.592 44.871,348.490 44.951,348.436 45.093 C 348.369 45.268,348.404 45.311,348.544 45.227 C 348.706 45.129,348.707 45.156,348.547 45.353 C 348.297 45.663,348.258 61.399,348.509 61.245 C 348.593 61.192,348.619 61.263,348.566 61.401 C 348.500 61.573,348.606 61.687,348.902 61.761 C 349.257 61.850,349.333 61.967,349.333 62.421 C 349.333 62.724,349.427 63.010,349.542 63.056 C 349.708 63.124,349.708 63.143,349.542 63.154 C 349.427 63.161,349.333 63.246,349.333 63.343 C 349.333 63.440,349.408 63.473,349.500 63.417 C 349.592 63.360,349.667 63.393,349.667 63.490 C 349.667 63.587,349.804 63.667,349.972 63.667 C 350.180 63.667,350.272 63.784,350.263 64.037 C 350.253 64.321,350.367 64.429,350.750 64.501 C 351.053 64.558,351.243 64.693,351.233 64.844 C 351.224 64.980,351.299 65.165,351.400 65.254 C 351.593 65.425,351.647 65.435,352.587 65.475 C 353.134 65.498,353.166 65.529,353.062 65.942 C 352.988 66.238,353.010 66.347,353.131 66.272 C 353.230 66.211,353.352 66.228,353.402 66.310 C 353.452 66.391,354.201 66.455,355.065 66.452 C 356.314 66.447,356.693 66.502,356.913 66.723 C 357.095 66.905,357.120 67.000,356.984 67.000 C 356.871 67.000,356.822 67.044,356.876 67.098 C 356.930 67.152,364.255 67.186,373.153 67.174 L 389.333 67.153 389.333 71.178 C 389.333 74.699,389.302 75.190,389.082 75.106 C 388.903 75.037,354.072 74.940,349.534 74.995 C 349.323 74.998,348.965 75.200,348.738 75.445 L 348.326 75.890 348.338 80.658 C 348.351 85.664,348.388 85.944,349.000 85.750 C 349.234 85.676,349.337 85.693,349.272 85.797 C 349.206 85.905,350.017 85.957,351.585 85.945 C 353.860 85.927,354.014 85.946,354.245 86.275 C 354.380 86.468,354.642 86.665,354.828 86.714 C 355.267 86.828,355.256 86.712,354.792 86.324 C 354.585 86.152,354.510 86.009,354.625 86.006 C 354.881 85.999,355.508 86.603,355.379 86.732 C 355.328 86.783,362.703 86.808,371.768 86.788 L 388.250 86.750 388.303 86.375 C 388.363 85.953,388.454 85.939,390.875 85.974 C 391.677 85.986,392.333 85.926,392.333 85.841 C 392.333 85.755,392.483 85.715,392.667 85.750 C 392.927 85.800,393.000 85.724,393.000 85.407 C 393.000 85.016,394.194 84.816,395.475 84.991 C 395.599 85.008,395.651 84.942,395.590 84.844 C 395.530 84.747,395.565 84.667,395.668 84.667 C 395.780 84.667,395.813 84.532,395.750 84.333 C 395.653 84.026,396.410 83.869,397.507 83.969 C 397.557 83.973,397.609 83.824,397.623 83.636 C 397.655 83.211,397.679 83.189,398.177 83.110 C 398.491 83.060,398.582 82.946,398.577 82.606 C 398.571 82.235,398.642 82.167,399.035 82.167 C 399.420 82.167,399.500 82.095,399.500 81.750 C 399.500 81.491,399.594 81.333,399.750 81.333 C 399.970 81.333,400.000 80.083,400.000 71.083 C 400.000 62.083,399.970 60.833,399.750 60.833 C 399.568 60.833,399.500 60.645,399.500 60.139 C 399.500 59.757,399.450 59.495,399.389 59.556 C 399.258 59.687,398.667 59.191,398.667 58.951 C 398.667 58.861,398.535 58.679,398.375 58.548 C 398.215 58.416,398.189 58.363,398.317 58.430 C 398.473 58.511,398.511 58.486,398.431 58.356 C 398.365 58.249,398.237 58.206,398.148 58.262 C 398.059 58.317,397.895 58.287,397.784 58.195 C 397.568 58.016,397.505 58.000,397.012 58.000 C 396.806 58.000,396.671 57.866,396.637 57.627 C 396.591 57.308,396.464 57.246,395.750 57.195 C 394.791 57.127,394.823 57.144,394.790 56.697 C 394.776 56.510,394.703 56.394,394.629 56.440 C 394.555 56.486,394.545 56.612,394.607 56.720 C 394.672 56.833,394.656 56.858,394.568 56.778 C 394.485 56.701,394.416 56.551,394.416 56.444 C 394.415 56.214,395.565 56.229,375.083 56.179 C 366.467 56.158,359.529 56.100,359.667 56.051 C 360.255 55.841,360.333 55.471,360.333 52.897 C 360.333 50.387,360.329 50.354,359.917 50.030 C 359.663 49.830,359.500 49.532,359.500 49.268 L 359.500 48.833 379.375 48.807 C 390.306 48.793,399.419 48.796,399.625 48.814 L 400.000 48.846 400.000 44.173 C 400.000 39.587,399.994 39.500,399.661 39.500 C 399.475 39.500,399.279 39.385,399.225 39.244 C 399.009 38.683,398.292 38.520,396.237 38.565 C 393.876 38.616,393.000 38.531,393.000 38.248 C 393.000 37.945,392.546 37.618,392.319 37.759 C 392.180 37.845,392.202 37.923,392.395 38.031 C 392.545 38.115,392.667 38.260,392.667 38.354 C 392.667 38.447,392.549 38.406,392.405 38.262 C 392.261 38.118,392.069 38.000,391.978 38.000 C 391.888 38.000,391.859 37.926,391.915 37.836 C 391.981 37.730,386.707 37.674,376.786 37.677 C 363.780 37.681,361.556 37.716,361.556 37.917 M166.063 39.700 C 165.987 39.823,166.027 39.837,166.183 39.744 C 166.367 39.633,166.377 39.654,166.230 39.843 C 166.128 39.975,166.039 40.335,166.033 40.642 C 166.019 41.295,165.986 41.343,165.519 41.378 C 165.239 41.399,165.167 41.514,165.167 41.937 C 165.167 42.400,165.120 42.457,164.807 42.375 C 164.563 42.311,164.486 42.342,164.566 42.472 C 164.639 42.591,164.597 42.629,164.453 42.574 C 164.278 42.507,164.214 42.677,164.191 43.273 C 164.158 44.157,164.150 44.174,163.724 44.236 C 163.480 44.271,163.406 44.453,163.367 45.121 C 163.321 45.903,163.283 45.968,162.825 46.060 C 162.400 46.145,162.333 46.233,162.333 46.709 C 162.333 47.167,161.673 48.151,161.664 47.707 C 161.657 47.348,161.338 48.153,161.336 48.536 C 161.334 48.890,161.272 48.966,161.056 48.883 C 160.878 48.815,160.819 48.842,160.892 48.960 C 160.954 49.061,160.918 49.198,160.810 49.264 C 160.693 49.337,160.660 49.313,160.727 49.204 C 160.788 49.104,160.756 48.972,160.655 48.909 C 160.538 48.837,160.483 48.939,160.504 49.190 C 160.601 50.355,160.513 50.667,160.083 50.667 C 159.854 50.667,159.656 50.760,159.642 50.875 C 159.628 50.990,159.602 51.196,159.583 51.333 C 159.565 51.471,159.538 51.790,159.525 52.042 C 159.505 52.413,159.421 52.500,159.083 52.500 C 158.734 52.500,158.667 52.579,158.667 52.986 C 158.667 53.253,158.573 53.510,158.458 53.556 C 158.299 53.620,158.302 53.643,158.470 53.654 C 158.641 53.664,158.634 53.723,158.440 53.917 C 158.130 54.227,157.891 54.248,158.145 53.943 C 158.331 53.719,158.241 53.500,157.962 53.500 C 157.881 53.500,157.860 53.575,157.917 53.667 C 157.973 53.758,157.945 53.833,157.854 53.833 C 157.762 53.833,157.692 54.126,157.697 54.484 C 157.707 55.252,157.572 55.526,157.215 55.463 C 156.955 55.417,156.870 55.625,156.766 56.559 C 156.708 57.082,156.410 57.352,156.044 57.212 C 155.905 57.158,155.821 57.216,155.841 57.352 C 155.985 58.387,155.826 59.000,155.412 59.000 C 155.080 59.000,154.971 59.103,154.893 59.491 C 154.828 59.821,154.681 59.998,154.447 60.033 C 154.157 60.075,154.091 60.219,154.048 60.904 C 153.990 61.846,153.975 61.872,153.464 61.898 C 153.077 61.917,153.061 61.963,153.016 63.208 C 153.003 63.582,152.923 63.667,152.583 63.667 C 152.229 63.667,152.167 63.743,152.167 64.182 C 152.167 64.552,152.075 64.722,151.844 64.782 C 151.505 64.871,151.167 65.614,151.167 66.270 C 151.167 66.549,151.096 66.629,150.910 66.558 C 150.746 66.495,150.671 66.542,150.702 66.688 C 150.728 66.814,150.659 66.899,150.548 66.877 C 150.431 66.854,150.386 66.942,150.440 67.085 C 150.493 67.222,150.459 67.333,150.366 67.333 C 150.272 67.333,150.217 67.524,150.242 67.756 C 150.291 68.195,149.927 68.518,149.542 68.380 C 149.391 68.326,149.333 68.563,149.333 69.236 C 149.333 70.184,149.261 70.270,148.550 70.181 C 148.440 70.167,148.377 70.295,148.410 70.467 C 148.490 70.878,148.290 71.178,147.900 71.235 C 147.710 71.263,147.576 71.424,147.565 71.636 C 147.554 71.832,147.616 71.948,147.701 71.895 C 147.786 71.843,147.809 71.676,147.751 71.525 C 147.669 71.307,147.690 71.293,147.853 71.454 C 148.016 71.617,148.004 71.720,147.795 71.954 C 147.649 72.117,147.505 72.438,147.473 72.667 C 147.436 72.942,147.318 73.076,147.125 73.060 C 146.965 73.047,146.833 73.108,146.833 73.195 C 146.833 73.282,146.776 73.317,146.705 73.274 C 146.634 73.230,146.561 73.536,146.543 73.954 C 146.504 74.823,146.493 74.842,146.019 74.878 C 145.777 74.896,145.667 75.017,145.667 75.265 C 145.667 76.044,145.458 76.606,145.112 76.758 C 144.914 76.845,144.724 77.067,144.690 77.250 C 144.656 77.433,144.543 77.638,144.439 77.706 C 144.311 77.789,144.327 77.829,144.490 77.831 C 144.662 77.833,144.639 77.901,144.409 78.069 C 144.232 78.198,144.030 78.268,143.960 78.225 C 143.827 78.143,143.785 78.309,143.763 79.000 C 143.753 79.318,143.650 79.428,143.328 79.466 C 142.943 79.511,142.902 79.591,142.868 80.370 C 142.825 81.358,142.815 81.375,142.271 81.375 C 141.956 81.375,141.875 81.449,141.922 81.695 C 142.019 82.199,141.833 82.494,141.442 82.454 C 141.101 82.418,141.081 82.493,141.032 83.971 C 140.961 86.090,140.800 85.988,144.136 85.927 C 148.099 85.855,149.478 85.963,149.381 86.338 C 149.277 86.735,149.584 86.889,150.017 86.658 C 150.213 86.553,150.328 86.541,150.271 86.632 C 150.206 86.738,150.768 86.793,151.825 86.785 C 152.950 86.776,153.448 86.715,153.376 86.594 C 153.317 86.497,153.389 86.514,153.536 86.633 C 153.768 86.821,153.818 86.782,153.915 86.341 C 153.976 86.062,154.100 85.833,154.190 85.833 C 154.280 85.833,154.310 85.764,154.257 85.678 C 154.204 85.593,154.249 85.469,154.356 85.402 C 154.474 85.330,154.507 85.354,154.440 85.463 C 154.378 85.562,154.399 85.688,154.486 85.741 C 154.726 85.890,154.886 85.514,154.685 85.272 C 154.581 85.147,154.569 84.995,154.657 84.904 C 154.738 84.819,154.830 84.564,154.861 84.336 C 154.903 84.026,155.018 83.921,155.319 83.919 C 155.540 83.918,155.756 83.812,155.799 83.685 C 155.846 83.544,155.803 83.499,155.688 83.570 C 155.585 83.634,155.500 83.607,155.500 83.510 C 155.500 83.413,155.578 83.333,155.674 83.333 C 155.770 83.333,155.836 83.240,155.821 83.125 C 155.732 82.437,155.847 81.970,156.083 82.060 C 156.221 82.113,156.334 82.065,156.336 81.953 C 156.338 81.802,156.373 81.804,156.474 81.964 C 156.555 82.091,156.618 81.827,156.629 81.312 C 156.650 80.405,156.828 80.153,157.352 80.290 C 157.633 80.363,157.667 80.272,157.667 79.436 C 157.667 78.921,157.742 78.500,157.833 78.500 C 157.925 78.500,158.040 78.503,158.089 78.506 C 158.368 78.525,158.627 77.975,158.607 77.407 C 158.585 76.808,158.624 76.747,159.074 76.669 C 159.344 76.622,159.550 76.527,159.532 76.458 C 159.421 76.027,159.546 75.675,159.843 75.580 C 160.231 75.457,160.471 74.940,160.527 74.105 C 160.555 73.694,160.631 73.561,160.800 73.625 C 161.120 73.748,161.328 73.367,161.331 72.652 C 161.333 72.171,161.418 72.015,161.766 71.856 C 162.043 71.730,162.165 71.570,162.105 71.413 C 162.053 71.277,162.083 71.167,162.172 71.167 C 162.261 71.167,162.333 70.942,162.333 70.667 C 162.333 70.392,162.408 70.157,162.500 70.146 C 162.592 70.134,162.758 70.116,162.870 70.104 C 163.084 70.082,163.389 68.724,163.235 68.477 C 163.187 68.398,163.245 68.325,163.365 68.314 C 163.485 68.304,163.696 68.285,163.833 68.272 C 164.013 68.256,164.097 68.008,164.133 67.386 C 164.180 66.587,164.219 66.515,164.661 66.418 C 165.067 66.329,165.138 66.233,165.134 65.781 C 165.123 64.590,165.152 64.500,165.554 64.500 C 165.904 64.500,165.944 64.418,165.980 63.629 C 166.026 62.615,165.992 62.677,166.534 62.633 C 166.861 62.605,166.958 62.506,166.958 62.196 C 166.958 61.800,167.287 61.451,167.522 61.597 C 167.675 61.692,167.901 61.345,167.771 61.215 C 167.718 61.162,167.559 61.216,167.417 61.333 C 167.275 61.451,167.110 61.499,167.052 61.440 C 166.993 61.382,167.036 61.333,167.149 61.333 C 167.261 61.333,167.299 61.247,167.234 61.141 C 167.160 61.022,167.188 60.994,167.308 61.067 C 167.413 61.133,167.500 61.102,167.500 61.000 C 167.500 60.898,167.575 60.860,167.667 60.917 C 167.767 60.979,167.833 60.748,167.833 60.332 C 167.833 59.753,167.880 59.659,168.125 59.735 C 168.285 59.785,168.529 59.745,168.667 59.647 C 168.879 59.495,168.875 59.482,168.633 59.559 C 168.435 59.623,168.378 59.577,168.443 59.408 C 168.494 59.275,168.587 59.167,168.649 59.167 C 168.711 59.167,168.780 58.931,168.802 58.644 C 168.853 57.975,168.958 57.813,169.304 57.871 C 169.458 57.896,169.565 57.823,169.542 57.708 C 169.519 57.594,169.568 57.500,169.650 57.500 C 169.733 57.500,169.800 57.242,169.800 56.928 C 169.800 56.202,169.949 55.961,170.325 56.081 C 170.583 56.163,170.626 56.060,170.642 55.312 C 170.664 54.336,170.690 54.288,171.208 54.250 C 171.536 54.226,171.588 54.121,171.621 53.421 C 171.662 52.526,171.678 52.493,172.110 52.431 C 172.315 52.401,172.448 52.199,172.512 51.818 L 172.608 51.250 172.737 51.702 C 172.808 51.951,173.009 52.200,173.183 52.255 C 173.395 52.323,173.500 52.510,173.500 52.824 C 173.500 53.208,173.587 53.309,173.991 53.390 C 174.450 53.482,174.485 53.544,174.533 54.354 C 174.573 55.045,174.645 55.229,174.890 55.264 C 175.331 55.328,175.362 55.390,175.375 56.244 C 175.381 56.667,175.461 57.059,175.552 57.116 C 175.655 57.179,175.665 57.129,175.577 56.984 C 175.458 56.787,175.479 56.785,175.711 56.973 C 175.862 57.095,176.064 57.147,176.159 57.088 C 176.321 56.988,176.417 57.849,176.345 58.750 C 176.323 59.027,176.347 59.041,176.490 58.833 C 176.623 58.639,176.662 58.634,176.664 58.809 C 176.666 58.942,176.771 58.996,176.917 58.940 C 177.172 58.842,177.233 59.046,177.174 59.789 C 177.157 59.993,177.271 60.331,177.426 60.539 C 177.600 60.773,177.671 60.809,177.612 60.633 C 177.545 60.434,177.588 60.378,177.758 60.443 C 177.890 60.493,177.957 60.602,177.906 60.684 C 177.855 60.766,177.893 60.833,177.990 60.833 C 178.088 60.833,178.167 61.161,178.167 61.563 C 178.167 62.013,178.264 62.373,178.421 62.503 C 178.767 62.791,178.935 62.578,178.652 62.212 C 178.441 61.941,178.452 61.942,178.779 62.220 C 179.004 62.412,179.118 62.677,179.089 62.944 C 179.052 63.278,179.142 63.400,179.521 63.532 C 179.988 63.695,180.148 64.275,180.010 65.301 C 179.994 65.421,180.079 65.506,180.199 65.490 C 180.970 65.386,181.032 65.464,180.973 66.465 C 180.917 67.430,180.917 67.431,181.366 67.365 C 181.801 67.300,181.816 67.326,181.866 68.191 C 181.913 69.026,181.946 69.087,182.375 69.136 C 182.835 69.189,182.954 69.585,182.844 70.696 C 182.825 70.888,182.964 70.993,183.283 71.030 C 183.705 71.078,183.745 71.138,183.694 71.644 C 183.662 71.966,183.704 72.163,183.795 72.107 C 183.885 72.051,183.916 72.196,183.869 72.446 C 183.793 72.841,183.826 72.874,184.226 72.797 C 184.688 72.709,184.752 72.892,184.696 74.140 C 184.684 74.417,184.750 74.504,184.921 74.438 C 185.054 74.387,185.145 74.427,185.123 74.527 C 185.101 74.627,185.188 74.746,185.315 74.792 C 185.473 74.850,185.505 74.804,185.415 74.647 C 185.322 74.483,185.338 74.466,185.471 74.587 C 185.574 74.681,185.685 75.131,185.719 75.587 C 185.778 76.394,186.050 76.625,186.357 76.128 C 186.418 76.029,186.472 76.129,186.477 76.349 C 186.498 77.227,186.561 77.354,187.020 77.446 C 187.454 77.533,187.488 77.599,187.534 78.478 C 187.573 79.225,187.640 79.417,187.863 79.419 C 188.282 79.422,188.354 79.559,188.387 80.426 C 188.413 81.127,188.463 81.224,188.823 81.279 C 189.350 81.359,189.319 81.277,189.487 83.052 C 189.494 83.127,189.663 83.164,189.863 83.135 C 190.172 83.091,190.231 83.170,190.257 83.667 C 190.334 85.115,190.330 85.097,190.500 84.833 C 190.608 84.667,190.662 84.653,190.664 84.792 C 190.666 84.906,190.779 85.000,190.917 85.000 C 191.144 85.000,191.252 85.395,191.179 85.958 C 191.164 86.073,191.228 86.167,191.321 86.167 C 191.414 86.167,191.441 86.292,191.383 86.446 C 191.300 86.659,191.343 86.699,191.563 86.614 C 191.725 86.552,191.809 86.572,191.754 86.660 C 191.696 86.754,192.554 86.811,193.920 86.804 C 195.164 86.798,196.143 86.754,196.096 86.708 C 195.936 86.548,196.843 85.968,197.099 86.066 C 197.239 86.120,197.310 86.237,197.255 86.325 C 197.201 86.413,197.053 86.446,196.928 86.398 C 196.706 86.313,196.391 86.613,196.544 86.766 C 196.694 86.916,197.500 86.504,197.500 86.277 C 197.500 85.960,198.557 85.871,201.542 85.936 C 202.894 85.966,204.000 85.932,204.000 85.861 C 204.000 85.790,204.206 85.736,204.458 85.741 C 204.900 85.750,204.916 85.721,204.893 84.936 C 204.878 84.413,204.922 84.205,205.015 84.353 C 205.131 84.536,205.162 84.523,205.164 84.292 C 205.166 84.131,205.099 84.000,205.016 84.000 C 204.933 84.000,204.902 83.858,204.947 83.685 C 205.046 83.305,204.732 83.071,204.444 83.310 C 204.293 83.436,204.228 83.406,204.204 83.200 C 204.107 82.353,204.044 82.250,203.623 82.259 C 203.255 82.266,203.195 82.196,203.195 81.759 C 203.195 80.881,203.129 80.347,203.021 80.360 C 202.456 80.429,202.333 80.305,202.333 79.667 C 202.333 79.300,202.254 79.000,202.157 79.000 C 202.060 79.000,202.034 78.913,202.099 78.808 C 202.173 78.688,202.145 78.660,202.026 78.734 C 201.920 78.799,201.833 78.774,201.833 78.677 C 201.833 78.579,201.721 78.500,201.583 78.500 C 201.428 78.500,201.333 78.343,201.333 78.083 C 201.333 77.750,201.250 77.667,200.917 77.667 C 200.491 77.667,200.386 77.323,200.478 76.221 C 200.495 76.021,200.420 75.804,200.312 75.737 C 200.195 75.664,200.159 75.687,200.224 75.792 C 200.296 75.907,200.188 75.901,199.918 75.776 C 199.623 75.639,199.495 75.439,199.476 75.083 C 199.461 74.808,199.432 74.508,199.411 74.417 C 199.389 74.325,199.363 74.156,199.353 74.042 C 199.342 73.927,199.277 73.842,199.208 73.853 C 198.728 73.929,198.549 73.802,198.592 73.417 C 198.617 73.188,198.579 73.000,198.508 73.000 C 198.437 73.000,198.400 72.812,198.425 72.583 C 198.450 72.353,198.402 72.207,198.319 72.259 C 198.235 72.311,198.167 72.274,198.167 72.177 C 198.167 72.079,198.087 72.000,197.990 72.000 C 197.893 72.000,197.867 72.094,197.931 72.208 C 198.015 72.357,197.994 72.367,197.859 72.243 C 197.754 72.147,197.652 71.868,197.632 71.623 C 197.604 71.287,197.483 71.153,197.139 71.077 C 196.724 70.986,196.679 70.901,196.633 70.129 C 196.594 69.454,196.521 69.271,196.276 69.236 C 195.844 69.173,195.826 69.138,195.781 68.230 C 195.753 67.656,195.669 67.410,195.495 67.394 C 195.360 67.382,195.156 67.363,195.042 67.353 C 194.927 67.342,194.833 67.146,194.833 66.917 C 194.833 66.583,194.750 66.500,194.417 66.500 C 194.024 66.500,193.824 65.702,193.984 64.779 C 193.998 64.704,193.937 64.686,193.849 64.740 C 193.761 64.794,193.639 64.757,193.578 64.658 C 193.517 64.559,193.361 64.518,193.233 64.567 C 193.020 64.649,192.887 63.842,192.985 63.054 C 192.998 62.947,192.920 62.804,192.812 62.737 C 192.677 62.653,192.659 62.688,192.756 62.849 C 192.868 63.034,192.829 63.031,192.574 62.833 C 192.138 62.497,192.005 62.294,192.109 62.126 C 192.156 62.049,192.111 61.884,192.009 61.760 C 191.906 61.636,191.833 61.471,191.847 61.393 C 191.906 61.067,191.822 60.833,191.646 60.833 C 191.520 60.833,191.531 60.928,191.678 61.125 C 191.817 61.309,191.760 61.289,191.524 61.071 C 191.318 60.880,191.138 60.561,191.123 60.362 C 191.108 60.163,191.039 60.000,190.970 60.000 C 190.900 60.000,190.882 59.900,190.929 59.777 C 191.032 59.510,190.584 59.095,190.351 59.239 C 190.258 59.297,190.165 59.070,190.135 58.712 C 190.091 58.182,190.025 58.085,189.708 58.097 C 189.440 58.106,189.329 58.011,189.318 57.763 C 189.309 57.573,189.290 57.154,189.276 56.833 C 189.254 56.351,189.184 56.247,188.870 56.231 C 188.353 56.205,188.324 56.157,188.285 55.243 C 188.261 54.704,188.169 54.418,188.000 54.362 C 187.781 54.289,187.780 54.318,187.990 54.598 C 188.191 54.864,188.169 54.860,187.857 54.571 C 187.652 54.380,187.472 54.077,187.459 53.896 C 187.442 53.675,187.299 53.556,187.022 53.533 C 186.493 53.489,186.526 53.550,186.480 52.538 C 186.458 52.059,186.360 51.655,186.262 51.641 C 186.164 51.627,185.971 51.609,185.833 51.600 C 185.654 51.588,185.560 51.323,185.500 50.667 C 185.435 49.954,185.354 49.750,185.137 49.748 C 184.720 49.745,184.610 49.564,184.635 48.917 C 184.647 48.596,184.584 48.333,184.495 48.333 C 184.406 48.333,184.333 48.411,184.333 48.507 C 184.333 48.607,184.235 48.589,184.100 48.465 C 183.971 48.347,183.934 48.225,184.016 48.194 C 184.256 48.106,184.190 47.833,183.928 47.833 C 183.797 47.833,183.666 47.665,183.637 47.458 C 183.602 47.217,183.449 47.064,183.208 47.030 C 182.827 46.976,182.757 46.723,182.826 45.647 C 182.856 45.184,182.519 44.939,182.083 45.106 C 181.894 45.179,181.828 45.066,181.810 44.643 C 181.797 44.335,181.778 43.903,181.768 43.682 C 181.758 43.461,181.646 43.245,181.518 43.202 C 181.358 43.148,181.330 43.194,181.425 43.353 C 181.539 43.541,181.517 43.545,181.308 43.376 C 181.168 43.263,181.018 43.204,180.976 43.247 C 180.933 43.289,180.903 43.120,180.908 42.870 C 180.915 42.497,180.836 42.407,180.458 42.364 C 180.025 42.314,179.827 41.595,179.980 40.625 C 179.991 40.556,179.775 40.500,179.500 40.500 C 179.055 40.500,179.000 40.445,179.000 39.997 L 179.000 39.493 172.589 39.504 C 168.079 39.511,166.143 39.570,166.063 39.700 M219.099 39.769 C 219.045 39.909,219.002 50.089,219.003 62.391 L 219.005 84.759 219.426 85.213 C 219.657 85.462,219.923 85.667,220.017 85.667 C 220.110 85.667,220.143 85.737,220.090 85.823 C 220.031 85.918,220.907 85.967,222.327 85.948 C 224.535 85.918,224.673 85.936,224.908 86.271 C 225.156 86.625,225.833 86.918,225.833 86.671 C 225.833 86.599,225.665 86.423,225.458 86.279 C 225.179 86.084,225.150 86.015,225.347 86.009 C 225.492 86.004,225.710 86.186,225.831 86.413 L 226.052 86.826 243.538 86.826 L 261.023 86.825 261.408 86.378 C 261.792 85.931,261.800 85.930,264.063 85.941 C 265.312 85.947,266.333 85.902,266.333 85.842 C 266.333 85.781,266.532 85.736,266.775 85.741 C 267.360 85.753,267.345 85.885,267.367 80.425 C 267.382 76.559,267.345 75.755,267.151 75.696 C 267.022 75.656,266.752 75.474,266.550 75.291 C 266.340 75.100,266.070 75.001,265.916 75.060 C 265.770 75.117,265.684 75.107,265.725 75.040 C 265.793 74.930,248.262 74.932,236.543 75.042 C 232.831 75.077,232.156 75.046,232.077 74.839 C 232.025 74.705,231.991 66.793,232.001 57.256 C 232.010 47.719,232.014 39.821,232.009 39.705 C 231.994 39.357,219.233 39.421,219.099 39.769 M126.500 62.667 C 126.500 81.538,126.470 84.151,126.250 84.333 C 126.028 84.518,126.000 82.091,126.000 62.667 C 126.000 43.242,126.028 40.816,126.250 41.000 C 126.470 41.182,126.500 43.795,126.500 62.667 M161.576 47.178 C 161.516 47.276,161.507 47.396,161.556 47.444 C 161.675 47.564,162.000 47.353,162.000 47.157 C 162.000 46.944,161.712 46.958,161.576 47.178 M359.963 53.052 C 359.929 54.873,359.860 55.575,359.708 55.625 C 359.547 55.679,359.500 55.063,359.500 52.910 C 359.500 50.434,359.528 50.149,359.754 50.337 C 359.965 50.512,360.001 50.972,359.963 53.052 M173.500 51.770 C 173.500 51.992,173.455 52.003,173.250 51.833 C 173.112 51.719,173.000 51.598,173.000 51.563 C 173.000 51.528,173.112 51.500,173.250 51.500 C 173.387 51.500,173.500 51.622,173.500 51.770 M399.025 59.158 C 399.097 59.373,399.325 59.412,399.346 59.212 C 399.353 59.146,399.268 59.062,399.158 59.025 C 399.048 58.988,398.988 59.048,399.025 59.158 M190.750 59.678 C 190.750 59.807,190.619 59.937,190.458 59.968 C 190.171 60.024,190.052 59.670,190.281 59.441 C 190.456 59.266,190.750 59.415,190.750 59.678 M152.167 65.250 C 152.167 65.387,152.045 65.500,151.896 65.500 C 151.675 65.500,151.663 65.455,151.833 65.250 C 151.947 65.112,152.069 65.000,152.104 65.000 C 152.138 65.000,152.167 65.112,152.167 65.250 M114.292 80.280 C 114.265 82.555,114.244 80.742,114.244 76.250 C 114.244 71.758,114.265 69.897,114.291 72.113 C 114.318 74.330,114.318 78.005,114.292 80.280 M159.833 75.010 C 159.833 75.107,159.920 75.133,160.026 75.067 C 160.142 74.995,160.173 75.022,160.104 75.134 C 160.041 75.235,159.879 75.277,159.745 75.225 C 159.469 75.119,159.412 74.833,159.667 74.833 C 159.758 74.833,159.833 74.913,159.833 75.010 M331.833 75.417 C 332.097 75.735,331.850 75.732,331.426 75.411 C 331.167 75.215,331.155 75.167,331.364 75.167 C 331.508 75.167,331.719 75.279,331.833 75.417 M265.917 75.500 C 265.985 75.611,260.415 75.667,249.333 75.667 C 238.252 75.667,232.682 75.611,232.750 75.500 C 232.818 75.391,238.526 75.333,249.333 75.333 C 260.140 75.333,265.849 75.391,265.917 75.500 M331.000 75.500 C 331.000 75.610,325.024 75.667,313.407 75.667 C 301.720 75.667,295.848 75.611,295.917 75.500 C 295.984 75.391,302.030 75.333,313.510 75.333 C 325.059 75.333,331.000 75.390,331.000 75.500 M388.667 75.500 C 388.667 75.610,382.080 75.667,369.240 75.667 C 356.332 75.667,349.848 75.611,349.917 75.500 C 349.984 75.390,356.641 75.333,369.343 75.333 C 382.114 75.333,388.667 75.390,388.667 75.500 M143.858 77.825 C 143.930 78.040,144.159 78.078,144.179 77.879 C 144.186 77.813,144.102 77.728,143.992 77.692 C 143.882 77.655,143.822 77.715,143.858 77.825 M33.667 85.157 C 33.667 85.406,33.297 85.573,32.667 85.607 C 32.195 85.632,32.152 85.611,32.441 85.497 C 32.638 85.420,32.849 85.276,32.909 85.178 C 33.045 84.959,33.667 84.941,33.667 85.157 M267.099 85.404 C 267.133 85.641,266.773 85.662,266.546 85.435 C 266.475 85.364,266.529 85.331,266.667 85.361 C 266.818 85.395,266.895 85.318,266.861 85.167 C 266.831 85.029,266.864 84.975,266.935 85.046 C 267.007 85.118,267.080 85.279,267.099 85.404 M219.207 85.427 C 219.223 85.640,219.360 85.777,219.573 85.793 C 219.819 85.812,219.850 85.780,219.687 85.679 C 219.562 85.602,219.398 85.438,219.321 85.313 C 219.220 85.150,219.188 85.181,219.207 85.427 M78.879 86.388 C 78.956 86.618,79.315 86.650,79.375 86.433 C 79.398 86.350,79.281 86.262,79.116 86.238 C 78.946 86.213,78.843 86.279,78.879 86.388 M114.000 86.313 C 114.000 86.526,114.490 86.899,114.611 86.778 C 114.732 86.657,114.359 86.167,114.146 86.167 C 114.066 86.167,114.000 86.232,114.000 86.313 M261.410 86.511 C 261.349 86.609,261.340 86.729,261.389 86.778 C 261.508 86.897,261.833 86.687,261.833 86.490 C 261.833 86.277,261.546 86.291,261.410 86.511 " stroke="none" fill="#242c74" fill-rule="evenodd"></path><path id="path2" d="" stroke="none" fill="#30a0d8" fill-rule="evenodd"></path><path id="path3" d="M232.080 58.500 C 232.080 67.529,232.100 71.223,232.125 66.708 C 232.150 62.194,232.150 54.806,232.125 50.292 C 232.100 45.777,232.080 49.471,232.080 58.500 M190.333 59.382 C 190.471 59.501,190.686 59.708,190.812 59.841 C 191.008 60.048,191.015 60.032,190.858 59.728 C 190.758 59.532,190.543 59.326,190.380 59.269 C 190.122 59.179,190.116 59.194,190.333 59.382 M331.426 75.411 C 331.850 75.732,332.097 75.735,331.833 75.417 C 331.719 75.279,331.508 75.167,331.364 75.167 C 331.155 75.167,331.167 75.215,331.426 75.411 " stroke="none" fill="#3050a8" fill-rule="evenodd"></path><path id="path4" d="M84.401 38.142 C 84.754 38.540,84.833 38.576,84.833 38.339 C 84.833 38.251,84.665 38.090,84.458 37.982 C 84.085 37.786,84.085 37.787,84.401 38.142 M114.591 38.354 C 114.170 38.855,114.117 39.153,114.490 38.923 C 114.680 38.806,115.226 37.833,115.102 37.833 C 115.062 37.833,114.832 38.068,114.591 38.354 M114.243 47.583 C 114.244 51.800,114.265 53.501,114.292 51.364 C 114.318 49.226,114.318 45.776,114.291 43.697 C 114.265 41.618,114.243 43.367,114.243 47.583 M126.000 62.667 C 126.000 82.091,126.028 84.518,126.250 84.333 C 126.470 84.151,126.500 81.538,126.500 62.667 C 126.500 43.795,126.470 41.182,126.250 41.000 C 126.028 40.816,126.000 43.242,126.000 62.667 M295.205 49.333 C 295.205 49.654,295.240 49.785,295.282 49.625 C 295.323 49.465,295.323 49.202,295.282 49.042 C 295.240 48.881,295.205 49.012,295.205 49.333 M33.913 66.333 C 33.913 75.454,33.934 79.185,33.958 74.625 C 33.983 70.065,33.983 62.602,33.958 58.042 C 33.934 53.481,33.913 57.212,33.913 66.333 M359.500 52.910 C 359.500 55.063,359.547 55.679,359.708 55.625 C 360.048 55.512,360.090 50.616,359.754 50.337 C 359.528 50.149,359.500 50.434,359.500 52.910 M295.233 52.917 C 295.234 54.292,295.259 54.832,295.291 54.117 C 295.322 53.403,295.322 52.278,295.290 51.617 C 295.259 50.957,295.233 51.542,295.233 52.917 M173.000 51.563 C 173.000 51.598,173.112 51.719,173.250 51.833 C 173.455 52.003,173.500 51.992,173.500 51.770 C 173.500 51.622,173.387 51.500,173.250 51.500 C 173.112 51.500,173.000 51.528,173.000 51.563 M190.222 59.718 C 190.222 59.842,190.324 59.944,190.449 59.944 C 190.702 59.944,190.658 59.636,190.392 59.547 C 190.299 59.516,190.222 59.593,190.222 59.718 M151.833 65.250 C 151.663 65.455,151.675 65.500,151.896 65.500 C 152.045 65.500,152.167 65.387,152.167 65.250 C 152.167 65.112,152.138 65.000,152.104 65.000 C 152.069 65.000,151.947 65.112,151.833 65.250 M92.471 67.292 C 96.534 67.316,103.134 67.316,107.138 67.292 C 111.141 67.267,107.817 67.246,99.750 67.246 C 91.683 67.246,88.408 67.267,92.471 67.292 M300.208 67.292 C 302.935 67.317,307.398 67.317,310.125 67.292 C 312.852 67.266,310.621 67.245,305.167 67.245 C 299.712 67.245,297.481 67.266,300.208 67.292 M366.542 67.292 C 370.735 67.316,377.598 67.316,381.792 67.292 C 385.985 67.267,382.554 67.247,374.167 67.247 C 365.779 67.247,362.348 67.267,366.542 67.292 M114.244 76.250 C 114.244 80.742,114.265 82.555,114.292 80.280 C 114.318 78.005,114.318 74.330,114.291 72.113 C 114.265 69.897,114.244 71.758,114.244 76.250 M295.235 71.167 C 295.235 72.771,295.260 73.427,295.291 72.625 C 295.321 71.823,295.321 70.510,295.291 69.708 C 295.260 68.906,295.235 69.563,295.235 71.167 M232.750 75.500 C 232.682 75.611,238.252 75.667,249.333 75.667 C 260.415 75.667,265.985 75.611,265.917 75.500 C 265.849 75.391,260.140 75.333,249.333 75.333 C 238.526 75.333,232.818 75.391,232.750 75.500 M295.915 75.502 C 295.845 75.616,301.565 75.669,313.405 75.664 C 324.697 75.660,331.000 75.600,331.000 75.496 C 331.000 75.267,296.057 75.274,295.915 75.502 M349.917 75.500 C 349.848 75.611,356.332 75.667,369.240 75.667 C 382.080 75.667,388.667 75.610,388.667 75.500 C 388.667 75.390,382.114 75.333,369.343 75.333 C 356.641 75.333,349.984 75.390,349.917 75.500 M267.403 80.417 C 267.403 82.250,267.428 83.023,267.457 82.134 C 267.487 81.245,267.488 79.745,267.458 78.801 C 267.428 77.856,267.404 78.583,267.403 80.417 M32.667 85.359 L 32.083 85.699 32.583 85.589 C 32.858 85.528,33.193 85.371,33.327 85.239 C 33.672 84.901,33.353 84.959,32.667 85.359 M219.259 85.213 C 219.385 85.541,219.974 85.915,220.125 85.764 C 220.179 85.710,220.138 85.667,220.034 85.667 C 219.931 85.667,219.689 85.498,219.496 85.292 C 219.230 85.006,219.173 84.987,219.259 85.213 M146.875 85.948 C 147.035 85.990,147.298 85.990,147.458 85.948 C 147.619 85.906,147.487 85.872,147.167 85.872 C 146.846 85.872,146.715 85.906,146.875 85.948 M79.418 86.334 C 79.584 86.518,79.764 86.620,79.818 86.562 C 79.872 86.503,79.822 86.421,79.707 86.380 C 79.592 86.339,79.540 86.236,79.592 86.152 C 79.644 86.069,79.558 86.000,79.401 86.000 C 79.137 86.000,79.138 86.025,79.418 86.334 M196.574 86.236 C 196.396 86.366,196.289 86.511,196.336 86.558 C 196.383 86.605,196.608 86.501,196.836 86.326 C 197.310 85.961,197.065 85.877,196.574 86.236 M225.167 86.064 C 225.167 86.099,225.357 86.253,225.590 86.406 C 226.003 86.676,226.008 86.675,225.800 86.341 C 225.620 86.054,225.167 85.856,225.167 86.064 M354.810 86.339 C 355.324 86.767,355.596 86.763,355.167 86.333 C 354.983 86.150,354.740 86.002,354.625 86.006 C 354.510 86.009,354.594 86.159,354.810 86.339 " stroke="none" fill="#305474" fill-rule="evenodd"></path></g></svg>